<svg xmlns="http://www.w3.org/2000/svg" width="24" height="24" viewBox="0 0 24 24">
    <defs>
        <linearGradient id="q6xcl611ba" x1=".014%" x2="100%" y1="50%" y2="50%">
            <stop offset="0%" stop-color="#FF8400"/>
            <stop offset="100%" stop-color="#F6FA00"/>
        </linearGradient>
        <linearGradient id="3m2ygvcmtb" x1="0%" x2="99.986%" y1="50%" y2="50%">
            <stop offset="0%" stop-color="#FF0C2E"/>
            <stop offset="100%" stop-color="#FF8400"/>
        </linearGradient>
        <linearGradient id="qd9e6ia3ec" x1="0%" x2="100%" y1="50%" y2="50%">
            <stop offset="0%" stop-color="#0C9"/>
            <stop offset="100%" stop-color="#09F"/>
        </linearGradient>
    </defs>
    <g fill="none" fill-rule="evenodd">
        <path fill="#8595AD" fill-rule="nonzero" d="M13.535 17.222c.234 1.555.294 2.903.204 4.14l-.159.212c.242-.335.502-.67.77-.983.295-.346.583-.645.858-.882.265-.228.512-.395.743-.493l.115-.044.118.356c-.209.07-.456.228-.731.465-.258.223-.534.509-.819.842-.173.203-.344.416-.508.632l-.242.327c-.088.122-.162.227-.219.31-.081.654-.208 1.281-.374 1.896h-.362c.152-.562.27-1.144.35-1.753l-.004.002-.05-.08-.059-.128c-.082-.172-.185-.363-.31-.57-.356-.591-.814-1.184-1.384-1.736-.307-.298-.614-.577-.972-.832l.193-.306.275.205c.27.209.525.43.765.664.595.576 1.073 1.194 1.445 1.812.063.105.121.206.174.303.107-1.286.053-2.698-.187-4.303-.016-.103.055-.198.157-.213.103-.016.198.055.213.157z"/>
        <g>
            <path fill="url(#q6xcl611ba)" d="M7.286 1.126c.487.311.92.705 1.265 1.173.322.44.655.994.815 1.513.107.345.173.716.19 1.075.038.739-.094 1.504-.282 2.217-.3 1.128-.893 2.244-1.61 3.179-1.62 2.116-4.038 3.26-5.617 3.104l-.005.973s-.547-.104-.828-.32c.066-.325.344-.66.47-.798-.402-.234-.908-.725-1.378-1.421 2.11-1.344 5.19-5.153 3.88-10.428-.09-.36-.205-.732-.347-1.1 1.201-.1 2.442.193 3.447.833z" transform="translate(0 5.25) translate(14.25)"/>
            <path fill="url(#3m2ygvcmtb)" d="M5.22.086h.072c-.067.632-.048 1.279.014 1.898.135 1.398.657 2.837 1.373 4.087 1.14 1.987 2.888 3.48 4.544 4.233-.155.572-.361 1.02-.57 1.3.16.084.528.301.703.579-.148.27-.52.529-.594.578l-.012.008-.362-.906c-1.328.695-3.866.465-6.064-.947-.97-.622-1.901-1.456-2.577-2.405-.425-.597-.821-1.267-1.06-1.967-.115-.342-.194-.71-.228-1.069-.049-.539.04-1.17.162-1.693.13-.556.365-1.073.678-1.53C2.175.968 3.669.129 5.22.086z" transform="translate(0 5.25) translate(0 1.5)"/>
        </g>
        <path fill="#FFF" d="M22.49 8.314c1.117 2.21.468 4.947-.602 6.601 1.206-3.642.004-6.232.004-6.232s.383-.205.598-.369zm-.978-.96s.442.224.602.418l-.488.48-.512-.494.398-.404zM1.266 10.962c.295.057.788.083.788.083s-.382 2.939 2.251 5.802c-1.769-1.073-3.466-3.336-3.04-5.885zm.726-1.323l.58.204-.382.682-.707-.233c.107-.248.509-.653.509-.653z"/>
        <path fill="url(#qd9e6ia3ec)" d="M9.478 2.437c1.727-.717 3.827-.646 5.493.219 1.55.804 2.383 2.538 2.75 4.085 1.334 5.628-2.452 9.466-4.195 10.112.118.173.37.584.381.947-.362.186-1.005.2-1.005.2l.182-1.054c-1.835-.113-4.373-1.816-5.814-4.449-.636-1.165-1.1-2.506-1.22-3.808-.078-.82-.08-1.694.105-2.503.09-.392.238-.791.426-1.153.284-.545.771-1.098 1.224-1.528.487-.455 1.056-.813 1.673-1.068z"/>
        <path fill="#FFF" d="M7.647 4.737c.249.216.696.502.696.502s-1.594 3.037-.361 7.564c-1.187-2.105-1.807-5.481-.335-8.066zM8.879 3.66l.452.527-.642.553-.559-.627c.205-.219.749-.453.749-.453z"/>
    </g>
</svg>
