<svg xmlns="http://www.w3.org/2000/svg" xmlns:xlink="http://www.w3.org/1999/xlink" version="1.1" enable-background="new 0 0 50 50" xml:space="preserve" width="50" height="50" style=""><rect id="backgroundrect" width="100%" height="100%" x="0" y="0" fill="none" stroke="none"/>



<g class="currentLayer" style=""><title>Layer 1</title><path fill="#ffffff" d="M8.667,15h30c0.552,0,1-0.447,1-1s-0.448-1-1-1h-30c-0.552,0-1,0.447-1,1S8.114,15,8.667,15z" id="svg_1" class="" stroke="#ffffff" stroke-opacity="1" fill-opacity="1"/><path fill="#ffffff" d="M8.667,37h30c0.552,0,1-0.447,1-1s-0.448-1-1-1h-30c-0.552,0-1,0.447-1,1S8.114,37,8.667,37z" id="svg_2" class="" stroke="#ffffff" stroke-opacity="1" fill-opacity="1"/><path fill="#ffffff" d="M8.667,26h30c0.552,0,1-0.447,1-1s-0.448-1-1-1h-30c-0.552,0-1,0.447-1,1S8.114,26,8.667,26z" id="svg_3" class="" stroke="#ffffff" stroke-opacity="1" fill-opacity="1"/></g></svg>